<svg width="1362" height="681" viewBox="0 0 1362 681" fill="none" xmlns="http://www.w3.org/2000/svg">
<g clip-path="url(#clip0_3972_879)">
<path d="M621.671 24.371C247.016 94.142 -30.1423 292.195 2.63155 466.803C35.4054 641.41 365.622 726.4 740.276 656.629C1114.93 586.909 1392.09 388.805 1359.37 214.198C1334.39 81.031 1136.3 0 877.41 0C796.947 0 710.547 7.81517 621.671 24.371Z" fill="#FFD500"/>
<path fill-rule="evenodd" clip-rule="evenodd" d="M631.736 56.8142C268.23 116.405 -5.52248 291.886 20.387 448.807C46.2964 605.727 362.009 684.65 725.567 625.06C1089.13 565.469 1362.83 389.988 1336.92 233.067C1316.89 111.623 1123.34 36.9164 868.327 36.9164C793.799 36.9164 713.955 43.2919 631.736 56.7628V56.8142Z" fill="#164194"/>
<path d="M1034.93 242.785H1122.42L1104.14 305.614L1168.66 242.785H1270.7L1179.5 321.039L1228.84 397.751H1134.23L1097.38 329.934L1077.77 397.751H990.287L1034.88 242.785H1034.93ZM961.746 396.62C946.881 400.065 932.378 401.813 917.514 401.813C887.424 401.813 860.431 395.54 839.476 383.818C816.147 370.81 802.676 350.86 802.676 329.214C802.676 306.231 813.825 285.871 835.76 269.418C861.411 250.137 899.295 239.083 943.217 239.083C966.184 239.083 986.468 242.116 1004.69 247.978L989.823 299.753C973.255 293.686 957.72 290.447 941.875 290.447C911.475 290.447 889.85 304.329 889.85 323.61C889.85 340.063 906.417 350.243 932.069 350.243C945.591 350.243 962.468 347.004 978.004 340.731L961.797 396.62H961.746ZM560.821 383.612C537.853 370.809 524.021 350.912 524.021 329.214C524.021 306.026 535.169 285.871 557.104 269.418C582.807 250.137 620.949 239.083 664.2 239.083C737.851 239.083 786.16 269.212 786.16 311.682C786.16 334.664 775.012 355.231 753.077 371.478C726.703 391.222 689.542 401.813 645.62 401.813C610.833 401.813 582.807 395.746 560.821 383.612ZM610.833 323.353C610.833 339.6 626.368 350.449 651.039 350.449C678.394 350.449 698.987 335.281 698.987 316.875C698.987 301.296 681.748 290.653 658.781 290.653C631.065 290.653 610.833 304.946 610.833 323.353ZM383.222 289.778H331.558L345.39 242.733H535.272L521.75 289.778H471.738L440.667 397.7H352.152L383.222 289.778ZM141.676 332.711C161.289 348.341 183.895 356.31 205.211 356.31C215.327 356.31 221.108 353.688 221.108 350.243C221.108 345.256 211.972 343.713 195.766 339.395C156.231 328.752 136.67 315.332 136.67 294.097C136.67 262.682 175.173 239.288 236.333 239.288C270.81 239.288 299.507 245.767 323.507 258.775L289.701 296.72C270.449 285.871 254.552 280.472 241.03 280.472C232.566 280.472 227.508 283.3 227.508 287.208C227.508 293.48 239.327 295.434 258.269 300.884C293.417 311.065 309.933 322.53 309.933 344.639C309.933 376.26 267.352 401.402 206.243 401.402C168.721 401.402 131.56 391.89 98.4766 373.226L141.728 332.711H141.676Z" fill="#FFD500"/>
<path d="M310.552 449.99L306.629 458.525C304.874 457.291 303.326 456.417 301.881 455.851C300.436 455.285 298.991 455.028 297.545 455.028C296.358 455.028 295.326 455.285 294.552 455.851C293.778 456.417 293.365 457.085 293.365 457.908C293.365 459.039 294.655 460.119 297.236 461.147C298.371 461.558 299.3 461.918 299.92 462.227C303.584 463.82 306.113 465.414 307.558 467.111C309.003 468.808 309.726 470.916 309.726 473.435C309.726 477.394 308.178 480.582 305.081 482.999C301.984 485.415 297.907 486.649 292.745 486.649C289.855 486.649 287.068 486.289 284.436 485.518C281.804 484.747 279.223 483.615 276.746 482.073L281.184 473.024C283.765 474.618 285.881 475.697 287.636 476.366C289.391 477.034 290.991 477.343 292.539 477.343C293.881 477.343 294.965 477.034 295.739 476.469C296.565 475.903 296.926 475.132 296.926 474.206C296.926 472.767 295.068 471.327 291.404 469.836C290.32 469.373 289.442 469.065 288.823 468.808C285.881 467.522 283.817 466.083 282.578 464.592C281.339 463.049 280.72 461.147 280.72 458.885C280.72 455.234 282.217 452.201 285.262 449.835C288.307 447.419 292.178 446.236 296.978 446.236C299.403 446.236 301.726 446.545 304.049 447.265C306.32 447.933 308.487 448.961 310.5 450.247" fill="#FFD500"/>
<path d="M338.835 447.213H352.151L349.674 462.895C349.364 464.952 349.158 466.7 348.951 468.088C348.796 469.476 348.693 470.402 348.693 470.813C348.693 472.612 349.106 474.001 349.984 474.926C350.861 475.852 352.1 476.366 353.751 476.366C357.622 476.366 360.254 471.995 361.596 463.306C361.648 462.843 361.751 462.484 361.751 462.226L364.125 447.265H377.493L374.757 464.386L374.654 465.157C373.312 473.281 371.248 478.731 368.461 481.456C366.706 483.153 364.487 484.438 361.906 485.312C359.325 486.186 356.435 486.597 353.183 486.597C347.609 486.597 343.171 485.312 339.971 482.793C336.719 480.273 335.119 476.829 335.119 472.51C335.119 471.533 335.222 470.247 335.377 468.756C335.532 467.265 335.893 464.9 336.409 461.764L338.732 447.265L338.835 447.213Z" fill="#FFD500"/>
<path d="M397.932 501.868L406.654 447.265H419.299L418.473 452.509C420.383 450.35 422.396 448.756 424.667 447.676C426.886 446.596 429.312 446.082 431.841 446.082C436.228 446.082 439.841 447.727 442.628 450.966C445.415 454.257 446.809 458.473 446.809 463.666C446.809 470.196 444.899 475.646 441.131 480.016C437.364 484.335 432.615 486.495 426.886 486.495C424.306 486.495 422.035 485.981 419.919 484.849C417.854 483.77 415.893 482.073 414.086 479.811C414.086 480.993 414.086 482.124 413.983 483.101C413.983 484.13 413.828 485.004 413.725 485.723L411.248 501.868H397.983H397.932ZM432.925 465.311C432.925 462.895 432.202 460.941 430.706 459.45C429.209 457.959 427.247 457.239 424.822 457.239C422.138 457.239 419.919 458.268 418.164 460.324C416.409 462.381 415.531 464.952 415.531 468.036C415.531 470.402 416.254 472.304 417.751 473.744C419.248 475.183 421.157 475.903 423.531 475.903C426.267 475.903 428.538 474.926 430.293 472.921C432.047 470.916 432.925 468.396 432.925 465.311Z" fill="#FFD500"/>
<path d="M484.124 469.373V470.247C484.124 472.664 484.744 474.463 485.982 475.749C487.221 476.983 489.028 477.651 491.35 477.651C493.002 477.651 494.55 477.291 496.047 476.623C497.492 475.954 499.092 474.823 500.744 473.281L508.021 480.582C505.853 482.639 503.376 484.181 500.537 485.209C497.698 486.238 494.55 486.752 491.04 486.752C484.847 486.752 479.995 485.106 476.589 481.816C473.131 478.525 471.428 473.898 471.428 467.985C471.428 461.507 473.492 456.211 477.57 452.2C481.647 448.139 486.911 446.133 493.415 446.133C499.298 446.133 503.995 447.933 507.608 451.481C511.169 455.08 512.976 459.81 512.976 465.723C512.976 466.237 512.924 467.214 512.769 468.602C512.769 469.013 512.666 469.322 512.666 469.476H484.176L484.124 469.373ZM500.382 461.712C500.279 459.656 499.557 458.062 498.318 456.828C497.079 455.645 495.376 455.028 493.363 455.028C491.505 455.028 489.853 455.594 488.357 456.776C486.86 457.959 485.776 459.604 485.002 461.712H500.382Z" fill="#FFD500"/>
<path d="M536.15 485.107L542.188 447.213H555.092L554.162 453.64C555.35 451.224 556.898 449.424 558.911 448.139C560.872 446.905 563.195 446.236 565.827 446.236C566.085 446.236 566.395 446.236 566.756 446.288C567.117 446.288 567.633 446.391 568.407 446.545L565.724 458.422C564.846 458.216 564.072 458.062 563.349 457.959C562.679 457.856 561.956 457.805 561.337 457.805C558.756 457.805 556.691 458.628 555.195 460.221C553.698 461.815 552.666 464.335 552.098 467.677L549.363 484.952H536.098L536.15 485.107Z" fill="#FFD500"/>
<path d="M587.659 485.107L593.698 447.213H605.465L604.64 453.537C606.446 450.967 608.407 449.064 610.42 447.83C612.433 446.596 614.704 445.979 617.13 445.979C619.969 445.979 622.24 446.545 624.046 447.727C625.852 448.91 627.349 450.761 628.536 453.383C630.497 450.812 632.459 448.91 634.42 447.727C636.433 446.545 638.601 445.979 640.975 445.979C644.794 445.979 647.736 447.059 649.749 449.167C651.762 451.275 652.794 454.36 652.794 458.422C652.794 459.45 652.794 460.581 652.639 461.712C652.536 462.844 652.381 464.026 652.175 465.209L649.026 485.107H636.485L639.633 465.054C639.633 464.746 639.736 464.437 639.736 464.129C639.736 463.82 639.736 463.358 639.736 462.689C639.736 460.787 639.323 459.347 638.497 458.37C637.672 457.394 636.433 456.931 634.833 456.931C632.665 456.931 630.962 457.753 629.775 459.347C628.588 460.993 627.71 463.718 627.143 467.522L624.51 485.107H611.917L615.065 465.054C615.065 465.054 615.065 464.797 615.169 464.592C615.323 463.409 615.427 462.535 615.427 462.072C615.427 460.376 615.014 459.09 614.188 458.216C613.362 457.342 612.123 456.879 610.575 456.879C608.407 456.879 606.756 457.651 605.62 459.193C604.485 460.736 603.607 463.512 602.988 467.471L600.201 485.055H587.711L587.659 485.107Z" fill="#FFD500"/>
<path d="M690.832 469.373V470.247C690.832 472.664 691.452 474.463 692.69 475.749C693.929 476.983 695.736 477.651 698.058 477.651C699.71 477.651 701.258 477.291 702.755 476.623C704.2 475.954 705.8 474.823 707.452 473.281L714.729 480.582C712.561 482.639 710.084 484.181 707.245 485.209C704.406 486.238 701.258 486.752 697.748 486.752C691.555 486.752 686.703 485.106 683.297 481.816C679.891 478.525 678.136 473.898 678.136 467.985C678.136 461.507 680.2 456.211 684.278 452.2C688.355 448.139 693.619 446.133 700.123 446.133C706.006 446.133 710.703 447.933 714.316 451.481C717.877 455.08 719.684 459.81 719.684 465.723C719.684 466.237 719.632 467.214 719.477 468.602C719.477 469.013 719.374 469.322 719.374 469.476H690.884L690.832 469.373ZM707.09 461.712C706.987 459.656 706.265 458.062 705.026 456.828C703.787 455.645 702.084 455.028 700.071 455.028C698.213 455.028 696.561 455.594 695.065 456.776C693.568 457.959 692.484 459.604 691.71 461.712H707.09Z" fill="#FFD500"/>
<path d="M742.806 485.107L748.845 447.213H761.748L760.819 453.64C762.006 451.224 763.554 449.424 765.567 448.139C767.528 446.905 769.851 446.236 772.483 446.236C772.741 446.236 773.051 446.236 773.412 446.288C773.773 446.288 774.29 446.391 775.064 446.545L772.38 458.422C771.502 458.216 770.728 458.062 770.006 457.959C769.335 457.856 768.612 457.805 767.993 457.805C765.412 457.805 763.348 458.628 761.851 460.221C760.354 461.815 759.322 464.335 758.754 467.677L756.019 484.952H742.754L742.806 485.107Z" fill="#FFD500"/>
<path d="M827.399 461.044C826.005 459.553 824.612 458.473 823.218 457.753C821.824 457.034 820.328 456.674 818.779 456.674C816.147 456.674 813.928 457.702 812.173 459.759C810.418 461.815 809.489 464.283 809.489 467.317C809.489 469.836 810.16 471.79 811.554 473.281C812.947 474.721 814.805 475.492 817.179 475.492C818.676 475.492 820.121 475.235 821.515 474.721C822.908 474.206 824.302 473.435 825.695 472.355L823.682 484.798C821.876 485.415 820.173 485.878 818.521 486.186C816.87 486.495 815.218 486.649 813.618 486.649C808.25 486.649 803.915 484.901 800.56 481.456C797.257 478.011 795.554 473.487 795.554 467.882C795.554 461.352 797.618 456.057 801.747 451.995C805.876 447.933 811.295 445.876 817.953 445.876C820.07 445.876 822.134 446.185 824.044 446.802C825.953 447.419 827.76 448.293 829.36 449.527L827.502 461.095L827.399 461.044Z" fill="#FFD500"/>
<path d="M881.953 480.016C880.095 482.124 878.082 483.77 875.811 484.849C873.592 485.929 871.166 486.495 868.585 486.495C864.198 486.495 860.637 484.849 857.85 481.559C855.063 478.268 853.669 474.052 853.669 468.808C853.669 462.227 855.579 456.828 859.347 452.458C863.115 448.139 867.863 445.979 873.54 445.979C876.172 445.979 878.547 446.545 880.611 447.625C882.676 448.704 884.585 450.401 886.289 452.715L887.166 447.213H899.863L893.824 485.107H881.334L881.953 480.016ZM867.14 467.471C867.14 469.888 867.863 471.841 869.36 473.332C870.856 474.823 872.818 475.543 875.243 475.543C877.927 475.543 880.147 474.515 881.901 472.458C883.656 470.402 884.585 467.831 884.585 464.746C884.585 462.381 883.863 460.478 882.366 459.039C880.869 457.599 878.96 456.828 876.534 456.828C873.798 456.828 871.579 457.856 869.773 459.861C868.018 461.867 867.089 464.437 867.089 467.522L867.14 467.471Z" fill="#FFD500"/>
<path d="M973.875 426.955L964.688 485.107H952.043L952.817 480.171C950.959 482.279 948.894 483.924 946.623 485.004C944.352 486.083 941.978 486.649 939.397 486.649C935.062 486.649 931.449 485.004 928.662 481.713C925.875 478.423 924.481 474.155 924.481 468.962C924.481 462.381 926.391 456.982 930.159 452.663C933.927 448.344 938.675 446.185 944.352 446.185C946.933 446.185 949.204 446.699 951.268 447.779C953.333 448.859 955.294 450.504 957.101 452.818V451.738C957.101 451.018 957.101 450.195 957.204 449.373C957.307 448.55 957.359 447.727 957.513 446.853L960.662 426.904H973.875V426.955ZM938.262 467.265C938.262 469.682 938.985 471.636 940.481 473.127C941.978 474.618 943.939 475.338 946.365 475.338C949.049 475.338 951.217 474.309 953.023 472.253C954.83 470.196 955.707 467.625 955.707 464.54C955.707 462.175 954.984 460.273 953.488 458.833C951.991 457.394 950.081 456.622 947.707 456.622C944.972 456.622 942.701 457.651 940.946 459.656C939.191 461.661 938.314 464.232 938.314 467.317L938.262 467.265Z" fill="#FFD500"/>
<path d="M994.416 467.934C994.416 461.507 996.532 456.211 1000.76 452.098C1005 447.984 1010.42 445.876 1016.97 445.876C1023.06 445.876 1027.91 447.573 1031.53 451.018C1035.14 454.411 1037 459.039 1037 464.746C1037 471.121 1034.88 476.314 1030.6 480.428C1026.31 484.541 1020.84 486.598 1014.08 486.598C1008.14 486.598 1003.35 484.901 999.784 481.507C996.171 478.114 994.416 473.589 994.416 467.934ZM1016.66 456.828C1014.03 456.828 1011.81 457.908 1010 460.118C1008.2 462.329 1007.27 465.003 1007.27 468.139C1007.27 470.453 1007.94 472.304 1009.28 473.692C1010.62 475.08 1012.38 475.749 1014.6 475.749C1017.38 475.749 1019.65 474.721 1021.46 472.561C1023.27 470.453 1024.14 467.728 1024.14 464.437C1024.14 462.072 1023.47 460.221 1022.13 458.884C1020.79 457.496 1018.93 456.828 1016.66 456.828Z" fill="#FFD500"/>
<path d="M1092.27 449.99L1088.35 458.525C1086.6 457.291 1085.05 456.417 1083.6 455.851C1082.16 455.285 1080.71 455.028 1079.27 455.028C1078.08 455.028 1077.05 455.285 1076.27 455.851C1075.5 456.417 1075.09 457.085 1075.09 457.908C1075.09 459.039 1076.38 460.119 1078.96 461.147C1080.09 461.558 1081.02 461.918 1081.64 462.227C1085.31 463.82 1087.83 465.414 1089.28 467.111C1090.73 468.808 1091.45 470.916 1091.45 473.435C1091.45 477.394 1089.9 480.582 1086.8 482.999C1083.71 485.415 1079.63 486.649 1074.47 486.649C1071.58 486.649 1068.79 486.289 1066.16 485.518C1063.53 484.747 1060.94 483.615 1058.47 482.073L1062.91 473.024C1065.49 474.618 1067.6 475.697 1069.36 476.366C1071.11 477.034 1072.71 477.343 1074.26 477.343C1075.6 477.343 1076.69 477.034 1077.46 476.469C1078.29 475.903 1078.65 475.132 1078.65 474.206C1078.65 472.767 1076.79 471.327 1073.13 469.836C1072.04 469.373 1071.16 469.065 1070.54 468.808C1067.6 467.522 1065.54 466.083 1064.3 464.592C1063.06 463.049 1062.44 461.147 1062.44 458.885C1062.44 455.234 1063.94 452.201 1066.98 449.835C1070.03 447.419 1073.9 446.236 1078.7 446.236C1081.13 446.236 1083.45 446.545 1085.77 447.265C1088.04 447.933 1090.21 448.961 1092.22 450.247" fill="#FFD500"/>
</g>
<defs>
<clipPath id="clip0_3972_879">
<rect width="1362" height="681" fill="white"/>
</clipPath>
</defs>
</svg>
